<svg xmlns="http://www.w3.org/2000/svg" width="130" height="48" viewBox="0 0 130 48" fill="none"><g clip-path="url(#clip0_218_11584)"><path d="M89.112 0H84.0936V46.9843H89.112V0Z" fill="white"></path><path d="M49.9815 0H44.9906V38.2399H49.9815V0Z" fill="white"></path><path d="M80.3466 0H75.3557V21.6217H80.3466V0Z" fill="white"></path><path d="M58.7275 21.6217V0H53.7249L53.7327 21.6217H58.7275Z" fill="white"></path><path d="M106.584 13.732H114.501C115.671 13.732 116.31 14.3829 116.31 15.1828C116.31 15.9828 115.667 16.6337 114.501 16.6337H106.584V13.732ZM101.593 21.6215H114.647C118.504 21.6215 121.305 18.7394 121.305 15.1828C121.305 11.6263 118.504 8.74414 114.647 8.74414H101.593V21.6215Z" fill="white"></path><path d="M32.9802 25.3623H27.9893C27.3419 30.06 23.1319 33.2518 18.0429 33.2518H13.9584V25.3623H8.96753V38.2397H18.2587C25.9686 38.2397 32.3171 32.5695 32.9841 25.3623" fill="white"></path><path d="M63.7221 39.0832H66.6217V41.9928H63.7221V39.0832ZM80.3583 46.9845L80.3466 25.3628H53.7286V30.3506H75.3557V41.9928H71.6165V34.0915H58.7313V41.9928H44.9946V46.9806H80.3583V46.9845Z" fill="white"></path><path d="M13.9547 13.732H18.0628C23.0968 13.732 27.2755 16.9435 27.9857 21.6215H32.9608C32.2232 14.4025 25.9101 8.74414 18.2511 8.74414H8.95996V21.6215H13.9508V13.732H13.9547Z" fill="white"></path><path d="M13.9545 42.0122H8.96362V47H13.9545V42.0122Z" fill="white"></path><path d="M114.502 33.2523H101.593V38.2401H114.647C118.504 38.2401 121.305 35.358 121.305 31.8015C121.305 28.2449 118.504 25.3628 114.647 25.3628H106.584V30.3506H114.502C115.667 30.3506 116.31 31.0015 116.31 31.8015C116.31 32.6014 115.667 33.2523 114.502 33.2523Z" fill="white"></path><path d="M92.8512 46.9843H115.593C123.55 46.9843 130 40.6201 130 32.7659C130 29.2211 128.682 25.9821 126.508 23.4922C128.682 21.0022 130 17.7632 130 14.2184C130 9.88937 128.038 6.01518 124.947 3.40756L121.109 7.18371C123.503 9.00709 125.045 11.8069 125.045 14.9478C125.045 18.4573 123.102 21.6962 119.944 23.4922C123.098 25.2881 125.045 28.527 125.045 32.0365C125.045 37.5224 120.356 41.9847 114.596 41.9847H97.8421V5.0035H111.634V0H92.8512V46.9804V46.9843Z" fill="white"></path><path d="M18.0704 0.03125H0.19043V47.0038H5.21268V5.01907H18.0704C28.3386 5.01907 36.692 13.3164 36.692 23.5156C36.692 31.3071 31.811 37.9849 24.9289 40.7063L27.287 45.1491C35.766 41.5807 41.7143 33.2402 41.7143 23.5156C41.7143 10.5441 31.1283 0.03125 18.0704 0.03125Z" fill="white"></path></g><defs><clipPath id="clip0_218_11584"><rect width="129.81" height="47.0039" fill="white" transform="translate(0.19043)"></rect></clipPath></defs></svg>